<mxfile host="65bd71144e">
    <diagram id="A9qg82AuoLQeKydgUByE" name="第 1 页">
        <mxGraphModel dx="632" dy="364" grid="1" gridSize="10" guides="1" tooltips="1" connect="1" arrows="1" fold="1" page="1" pageScale="1" pageWidth="827" pageHeight="1169" background="#ffffff" math="0" shadow="0">
            <root>
                <mxCell id="0"/>
                <mxCell id="1" parent="0"/>
                <mxCell id="2" value="浏览器" style="rounded=0;whiteSpace=wrap;html=1;fillColor=#1ba1e2;fontColor=#000000;strokeColor=#006EAF;fontSize=16;" parent="1" vertex="1">
                    <mxGeometry x="80" y="80" width="120" height="280" as="geometry"/>
                </mxCell>
                <mxCell id="3" value="服务器" style="rounded=0;whiteSpace=wrap;html=1;fillColor=#1ba1e2;fontColor=#000000;strokeColor=#006EAF;fontSize=16;" parent="1" vertex="1">
                    <mxGeometry x="470" y="80" width="120" height="280" as="geometry"/>
                </mxCell>
                <mxCell id="19" value="" style="endArrow=classic;html=1;entryX=0;entryY=0.143;entryDx=0;entryDy=0;fillColor=#1ba1e2;entryPerimeter=0;fontSize=16;strokeWidth=3;strokeColor=#006EAF;fontColor=#000000;" edge="1" parent="1" target="3">
                    <mxGeometry width="50" height="50" relative="1" as="geometry">
                        <mxPoint x="200" y="120" as="sourcePoint"/>
                        <mxPoint x="250" y="70" as="targetPoint"/>
                    </mxGeometry>
                </mxCell>
                <mxCell id="20" value="" style="endArrow=classic;html=1;entryX=0;entryY=0.143;entryDx=0;entryDy=0;fillColor=#1ba1e2;entryPerimeter=0;fontSize=16;strokeWidth=3;strokeColor=#006EAF;fontColor=#000000;" edge="1" parent="1">
                    <mxGeometry width="50" height="50" relative="1" as="geometry">
                        <mxPoint x="200" y="266" as="sourcePoint"/>
                        <mxPoint x="470" y="266.04" as="targetPoint"/>
                    </mxGeometry>
                </mxCell>
                <mxCell id="21" value="请求" style="text;strokeColor=none;fillColor=none;html=1;fontSize=16;fontStyle=1;verticalAlign=middle;align=center;fontColor=#000000;" vertex="1" parent="1">
                    <mxGeometry x="290" y="87" width="100" height="40" as="geometry"/>
                </mxCell>
                <mxCell id="22" value="" style="endArrow=classic;html=1;fillColor=#1ba1e2;exitX=-0.018;exitY=0.391;exitDx=0;exitDy=0;exitPerimeter=0;strokeColor=#006EAF;fontSize=16;strokeWidth=3;fontColor=#000000;" edge="1" parent="1" source="3">
                    <mxGeometry width="50" height="50" relative="1" as="geometry">
                        <mxPoint x="150" y="240" as="sourcePoint"/>
                        <mxPoint x="200" y="190" as="targetPoint"/>
                    </mxGeometry>
                </mxCell>
                <mxCell id="23" value="响应&lt;br style=&quot;font-size: 16px;&quot;&gt;SetCookie:uid = hash123" style="text;strokeColor=none;fillColor=none;html=1;fontSize=16;fontStyle=1;verticalAlign=middle;align=center;fontColor=#000000;" vertex="1" parent="1">
                    <mxGeometry x="281" y="150" width="100" height="40" as="geometry"/>
                </mxCell>
                <mxCell id="24" value="请求&lt;br style=&quot;font-size: 16px;&quot;&gt;Cookie:uid = hash123" style="text;strokeColor=none;fillColor=none;html=1;fontSize=16;fontStyle=1;verticalAlign=middle;align=center;fontColor=#000000;" vertex="1" parent="1">
                    <mxGeometry x="290" y="224" width="100" height="40" as="geometry"/>
                </mxCell>
                <mxCell id="25" value="" style="endArrow=classic;html=1;fillColor=#1ba1e2;exitX=-0.018;exitY=0.391;exitDx=0;exitDy=0;exitPerimeter=0;strokeColor=#006EAF;fontSize=16;strokeWidth=3;fontColor=#000000;" edge="1" parent="1">
                    <mxGeometry width="50" height="50" relative="1" as="geometry">
                        <mxPoint x="467.8399999999999" y="343" as="sourcePoint"/>
                        <mxPoint x="200" y="343.52" as="targetPoint"/>
                    </mxGeometry>
                </mxCell>
                <mxCell id="26" value="响应" style="text;strokeColor=none;fillColor=none;html=1;fontSize=16;fontStyle=1;verticalAlign=middle;align=center;fontColor=#000000;" vertex="1" parent="1">
                    <mxGeometry x="291" y="309" width="100" height="40" as="geometry"/>
                </mxCell>
            </root>
        </mxGraphModel>
    </diagram>
</mxfile>